<svg width="36" height="30" viewBox="0 0 36 30" fill="none" xmlns="http://www.w3.org/2000/svg">
<path fill-rule="evenodd" clip-rule="evenodd" d="M3.51757 2.80624C3.74147 2.64416 4.01801 2.54102 4.31223 2.50988C4.60645 2.47873 4.90515 2.52096 5.17057 2.63124L32.1706 13.8812C32.4202 13.9849 32.6302 14.1445 32.7769 14.3421C32.9237 14.5398 33.0015 14.7676 33.0015 15C33.0015 15.2324 32.9237 15.4602 32.7769 15.6578C32.6302 15.8555 32.4202 16.0151 32.1706 16.1187L5.17057 27.3687C4.90517 27.4794 4.60634 27.522 4.31189 27.4911C4.01744 27.4602 3.74062 27.3572 3.51644 27.1951C3.29226 27.033 3.13081 26.8192 3.05251 26.5807C2.97421 26.3421 2.98258 26.0896 3.07657 25.855L6.91957 16.25H15.0001C15.3979 16.25 15.7794 16.1183 16.0607 15.8839C16.342 15.6495 16.5001 15.3315 16.5001 15C16.5001 14.6685 16.342 14.3505 16.0607 14.1161C15.7794 13.8817 15.3979 13.75 15.0001 13.75H6.91957L3.07507 4.14499C2.98157 3.91051 2.97355 3.65819 3.05205 3.41991C3.13054 3.18163 3.29351 2.96808 3.51757 2.80624Z" fill="#2F7BF7"/>
</svg>
