<svg width="24" height="24" viewBox="0 0 24 24" fill="none" xmlns="http://www.w3.org/2000/svg">
<path d="M3.71847 9.96489L1.0459 7.28889M8.80304 6.68204L7.71447 3.15918M20.2819 9.96489L22.9545 7.29061M15.1973 6.68204L16.2859 3.15918M12.0002 6.21404C4.82247 6.21404 1.80876 12.67 1.80876 12.8038C1.80876 12.9375 4.82247 19.3917 12.0002 19.3917C19.1779 19.3917 22.1916 12.9375 22.1916 12.8038C22.1916 12.67 19.1779 6.21404 12.0002 6.21404Z" stroke="#252425" stroke-width="2" stroke-linecap="round" stroke-linejoin="round"/>
<path d="M9.09612 12.1386C9.00332 12.5219 8.98753 12.9198 9.04968 13.3093C9.11182 13.6987 9.25067 14.0719 9.45816 14.4073C9.66565 14.7427 9.93766 15.0335 10.2584 15.263C10.5792 15.4924 10.9423 15.6559 11.3267 15.744C11.7111 15.832 12.1092 15.8429 12.4978 15.7759C12.8865 15.7089 13.2579 15.5655 13.5907 15.3538C13.9235 15.1422 14.211 14.8666 14.4364 14.5431C14.6619 14.2195 14.8208 13.8544 14.9041 13.4689C14.9969 13.0856 15.0127 12.6877 14.9506 12.2982C14.8884 11.9088 14.7496 11.5356 14.5421 11.2002C14.3346 10.8648 14.0626 10.574 13.7418 10.3445C13.4211 10.1151 13.058 9.95158 12.6736 9.86354C12.2891 9.77549 11.8911 9.76463 11.5024 9.8316C11.1138 9.89857 10.7423 10.042 10.4095 10.2537C10.0767 10.4653 9.78929 10.7409 9.56384 11.0645C9.33838 11.388 9.1794 11.7531 9.09612 12.1386Z" stroke="#252425" stroke-width="2" stroke-linecap="round" stroke-linejoin="round"/>
</svg>
