<svg width="24" height="24" viewBox="0 0 24 24" fill="none" xmlns="http://www.w3.org/2000/svg">
<g opacity="0.4">
<path d="M21.0381 12.8108C20.8804 14.5166 20.2403 16.1423 19.1924 17.4975C18.1446 18.8528 16.7324 19.8816 15.1212 20.4636C13.51 21.0456 11.7664 21.1566 10.0944 20.7838C8.42234 20.411 6.89107 19.5697 5.67973 18.3584C4.46839 17.147 3.62709 15.6157 3.25427 13.9437C2.88144 12.2717 2.99252 10.5281 3.5745 8.91685C4.15648 7.30564 5.18529 5.8935 6.54054 4.84567C7.8958 3.79783 9.52145 3.15764 11.2273 3C10.2286 4.35113 9.74798 6.01585 9.87293 7.69137C9.99788 9.36689 10.7201 10.9419 11.9081 12.13C13.0962 13.318 14.6712 14.0402 16.3467 14.1652C18.0222 14.2901 19.687 13.8095 21.0381 12.8108Z" stroke="#2F7BF7" stroke-width="2" stroke-linecap="round" stroke-linejoin="round"/>
</g>
</svg>
