<svg width="24" height="24" viewBox="0 0 24 24" fill="none" xmlns="http://www.w3.org/2000/svg">
<g clip-path="url(#clip0_355_19664)">
<path fill-rule="evenodd" clip-rule="evenodd" d="M6.00553 14.1136C6.05442 14.1286 6.10428 14.1402 6.15477 14.1485C6.47464 14.8984 6.79272 15.6491 7.109 16.4005C7.67769 17.7526 8.25091 19.1451 8.37641 19.5456C8.53356 20.0383 8.69863 20.3735 8.87952 20.6029C8.97336 20.7199 9.08077 20.8234 9.2074 20.9022C9.27389 20.9423 9.34436 20.9754 9.41769 21.0011C9.77949 21.1361 10.1096 21.0799 10.3165 21.0113C10.438 20.9702 10.5536 20.9135 10.6602 20.8425L10.6659 20.8403L13.861 18.8583L17.5524 21.6727C17.6067 21.7139 17.6655 21.7488 17.7288 21.7773C18.172 21.9685 18.6016 22.036 19.0064 21.982C19.4089 21.9258 19.7288 21.7582 19.9674 21.5681C20.2411 21.3482 20.4594 21.0678 20.605 20.7492L20.6152 20.7244L20.6186 20.7154L20.6209 20.7109V20.7087L20.622 20.7076C20.6405 20.6588 20.6556 20.6088 20.6672 20.558L24.0364 3.65693C24.0457 3.60265 24.051 3.54776 24.0522 3.4927C24.0522 2.99776 23.8646 2.52645 23.4248 2.24186C23.0471 1.99776 22.6277 1.98651 22.362 2.00676C22.0771 2.02926 21.8125 2.099 21.635 2.15524C21.5358 2.18711 21.4378 2.22237 21.3411 2.26098L21.3286 2.2666L2.43168 9.64119L2.42942 9.64231C2.36534 9.66534 2.30234 9.69124 2.24061 9.71993C2.09071 9.78684 1.94695 9.86663 1.81098 9.9584C1.55433 10.1328 0.963028 10.6119 1.06365 11.4038C1.14279 12.0338 1.57695 12.4218 1.84264 12.6086C1.98736 12.7109 2.12529 12.784 2.22704 12.8324C2.27227 12.8549 2.3695 12.8932 2.41133 12.9112L2.42264 12.9145L6.00553 14.1136ZM21.99 3.81891H21.9878L21.9584 3.83128L3.03882 11.216L3.00942 11.2272L2.99812 11.2306C2.96348 11.2439 2.92952 11.259 2.89636 11.2756C2.92797 11.2933 2.96042 11.3094 2.99359 11.324L6.54596 12.5141C6.60868 12.5372 6.66921 12.5658 6.72685 12.5996L18.4591 5.76604L18.4704 5.76042C18.5163 5.73328 18.563 5.70777 18.6106 5.68393C18.692 5.64231 18.8221 5.58157 18.969 5.53657C19.0708 5.50507 19.3727 5.41621 19.6983 5.52082C19.8713 5.57451 20.0255 5.67576 20.1431 5.8129C20.2607 5.95003 20.337 6.11745 20.3631 6.29585C20.4052 6.45193 20.4064 6.61614 20.3665 6.77279C20.2873 7.08213 20.0703 7.32285 19.8724 7.50733C19.7028 7.66481 17.5026 9.77504 15.333 11.8583L12.3787 14.6929L11.853 15.1991L18.4919 20.2632C18.5816 20.3005 18.6789 20.3159 18.7757 20.3082C18.8245 20.3016 18.8704 20.2813 18.908 20.2497C18.9538 20.2112 18.9931 20.1656 19.0244 20.1148L19.0267 20.1136L22.2942 3.72105C22.1914 3.74622 22.0905 3.77855 21.9923 3.81778L21.99 3.81891ZM12.424 17.7604L11.0989 16.7503L10.7778 18.7807L12.424 17.7604ZM9.8835 14.7458L11.2007 13.4803L14.1549 10.6434L15.255 9.58832L7.88346 13.8819L7.92303 13.9741C8.38795 15.0669 8.84773 16.1617 9.30237 17.2587L9.62233 15.234C9.65154 15.0463 9.74356 14.875 9.8835 14.7458Z" fill="#252425"/>
</g>
<defs>
<clipPath id="clip0_355_19664">
<rect width="24" height="24" fill="white"/>
</clipPath>
</defs>
</svg>
