<svg width="24" height="24" viewBox="0 0 24 24" fill="none" xmlns="http://www.w3.org/2000/svg">
<path d="M9.5781 14.9577L9.57811 14.9577C9.98323 14.5316 10.045 13.9686 10.045 13.6217V12.015C10.045 11.7835 9.96227 11.5606 9.81378 11.3956C9.66514 11.2305 9.46247 11.1367 9.25 11.1367H8.0395C7.82703 11.1367 7.62436 11.2305 7.47572 11.3956C7.32723 11.5606 7.2445 11.7835 7.2445 12.015C7.2445 12.2465 7.32723 12.4694 7.47572 12.6344C7.62436 12.7995 7.82703 12.8933 8.0395 12.8933H8.455L8.455 13.6217L8.455 13.6219C8.45514 13.654 8.45306 13.686 8.44878 13.7178C8.16616 13.9773 7.81446 14.1244 7.44926 14.1367C6.91325 14.1365 6.43814 13.9309 6.09673 13.5645C5.75508 13.1979 5.545 12.6677 5.545 12.015C5.545 10.6721 6.38065 9.97015 7.08316 9.88804C7.79719 9.80556 8.34474 9.94973 8.5346 10.054C8.62829 10.11 8.73138 10.1448 8.83779 10.1559C8.94448 10.1671 9.05205 10.1544 9.15405 10.1185C9.25602 10.0827 9.35015 10.0246 9.43096 9.94791C9.51176 9.87125 9.57761 9.7776 9.62484 9.67266C9.67206 9.56772 9.69976 9.45349 9.70641 9.33673C9.71306 9.21996 9.69855 9.10284 9.66366 8.99227C9.62877 8.88169 9.57416 8.77975 9.50286 8.69258C9.43173 8.6056 9.34537 8.53504 9.24873 8.48531C8.71172 8.18641 7.83643 8.03459 6.91678 8.14197C5.45199 8.31153 3.955 9.72269 3.955 12.015C3.955 14.3455 5.55352 15.8933 7.45 15.8933C8.33486 15.8933 9.12603 15.4329 9.5781 14.9577ZM13.045 9.01667C13.045 8.78516 12.9623 8.5623 12.8138 8.39731C12.6651 8.23216 12.4625 8.13833 12.25 8.13833C12.0375 8.13833 11.8349 8.23216 11.6862 8.39731C11.5377 8.5623 11.455 8.78516 11.455 9.01667V15.0167C11.455 15.2482 11.5377 15.471 11.6862 15.636C11.8349 15.8012 12.0375 15.895 12.25 15.895C12.4625 15.895 12.6651 15.8012 12.8138 15.636C12.9623 15.471 13.045 15.2482 13.045 15.0167V9.01667ZM15.25 8.13833C15.25 8.13833 15.25 8.13833 15.25 8.13833C15.0375 8.13834 14.8349 8.23216 14.6862 8.39731C14.5377 8.5623 14.455 8.78516 14.455 9.01667V15.0167C14.455 15.2482 14.5377 15.471 14.6862 15.636C14.8349 15.8012 15.0375 15.895 15.25 15.895C15.4625 15.895 15.6651 15.8012 15.8138 15.636C15.9623 15.471 16.045 15.2482 16.045 15.0167V12.888L17.5048 12.8783C17.7173 12.8769 17.9194 12.7817 18.0671 12.6156C18.2147 12.4497 18.2962 12.2263 18.295 11.9948C18.2937 11.7632 18.2098 11.5409 18.0604 11.3769C17.9109 11.2127 17.7077 11.1203 17.4952 11.1217L16.045 11.1314V9.89333H18.25C18.4625 9.89333 18.6651 9.79951 18.8138 9.63436C18.9623 9.46936 19.045 9.24651 19.045 9.015C19.045 8.78349 18.9623 8.56064 18.8138 8.39564C18.6651 8.23049 18.4625 8.13667 18.25 8.13667L15.25 8.13833ZM4.75 1.955C3.74188 1.955 2.77615 2.40001 2.0649 3.19028C1.3538 3.9804 0.955 5.0511 0.955 6.16667V17.8333C0.955 18.9489 1.3538 20.0196 2.0649 20.8097C2.77615 21.6 3.74188 22.045 4.75 22.045H18.25C19.2581 22.045 20.2239 21.6 20.9351 20.8097C21.6462 20.0196 22.045 18.9489 22.045 17.8333V6.16667C22.045 5.0511 21.6462 3.9804 20.9351 3.19028C20.2239 2.40001 19.2581 1.955 18.25 1.955H4.75ZM2.545 6.16667C2.545 5.51412 2.77834 4.88913 3.19246 4.429C3.60643 3.96903 4.16682 3.71167 4.75 3.71167H18.25C18.8332 3.71167 19.3936 3.96903 19.8075 4.429C20.2217 4.88913 20.455 5.51412 20.455 6.16667V17.8333C20.455 18.4859 20.2217 19.1109 19.8075 19.571C19.3936 20.031 18.8332 20.2883 18.25 20.2883H4.75C4.16682 20.2883 3.60643 20.031 3.19246 19.571C2.77834 19.1109 2.545 18.4859 2.545 17.8333V6.16667Z" fill="#787878" stroke="#787878" stroke-width="0.09"/>
</svg>
