<svg width="32" height="32" viewBox="0 0 32 32" fill="none" xmlns="http://www.w3.org/2000/svg">
<g clip-path="url(#clip0_2257_37603)">
<g clip-path="url(#clip1_2257_37603)">
<path d="M4.65035 5.90334C10.0602 -0.0815804 19.2956 -0.541959 25.2749 4.87151C31.2542 10.285 31.7141 19.5305 26.3058 25.5155L29.8656 29.0772C29.968 29.1794 30.0377 29.3097 30.066 29.4516C30.0943 29.5936 30.0798 29.7407 30.0244 29.8744C29.9691 30.0081 29.8753 30.1223 29.755 30.2026C29.6347 30.2829 29.4933 30.3256 29.3487 30.3253H15.4773C11.8569 30.3251 8.36573 28.9787 5.68121 26.5473C-0.29954 21.1324 -0.760948 11.8883 4.65035 5.90334ZM15.4773 28.8638H27.5863L24.7697 26.0445C24.6328 25.9075 24.5559 25.7217 24.5559 25.5279C24.5559 25.3341 24.6328 25.1483 24.7697 25.0112C26.6071 23.172 27.8584 20.8287 28.3654 18.2776C28.8724 15.7266 28.6123 13.0823 27.618 10.6792C26.6237 8.27613 24.9399 6.22208 22.7794 4.77678C20.6189 3.33147 18.0788 2.55982 15.4802 2.55938C11.9953 2.559 8.65302 3.9443 6.18854 6.41054C3.72407 8.87679 2.33933 12.2219 2.33894 15.7101C2.33856 19.1983 3.72255 22.5438 6.18648 25.0106C8.6504 27.4774 11.9924 28.8634 15.4773 28.8638Z" fill="#2F7BF7" stroke="#2F7BF7" stroke-width="1.18295"/>
<path d="M13.0984 15.2478C12.4369 15.1146 11.9813 15.4928 11.3712 15.2047C10.9463 15.0041 10.6976 14.6273 10.4719 14.4055C9.67542 13.6234 8.06915 14.8231 7.28479 14.308C6.95045 14.0884 8.92427 13.775 9.17513 13.5399C9.72307 13.0265 10.6844 13.4801 11.097 13.4801C11.7267 13.4801 11.4086 12.3618 11.897 11.8455C12.3928 11.3215 13.0048 11.4625 13.5129 10.9503C14.1481 10.31 14.4008 9.74506 14.4631 8.84526C14.4899 8.45888 14.5693 8.19644 14.3833 7.85672C14.0342 7.21914 12.9543 8.35719 12.5581 7.49169C12.4183 7.18628 12.5556 6.91653 12.4756 6.63556C11.5392 3.34432 2.70211 11.8454 5.98738 15.8878C6.56854 16.6029 7.5036 16.203 8.12787 16.8808C8.99628 17.8237 7.97304 19.595 8.72773 20.1079C9.08406 20.3487 9.91117 20.6929 10.4248 21.327C11.4146 22.5491 10.2468 23.9183 11.0154 25.3105C11.3154 25.8539 11.9454 26.3417 12.5879 26.2135C14.1039 25.9112 13.3893 23.9354 13.9861 23.0263C14.6306 22.0445 15.7662 21.785 16.4535 21.3071C17.1409 20.8292 17.0623 19.0617 16.5243 17.8034C15.8681 16.2686 14.7346 15.5774 13.0984 15.2478Z" fill="#2F7BF7"/>
<path d="M13.7051 27.0402L13.6638 27.0239C13.6688 27.0297 13.6752 27.0343 13.6824 27.0372C13.6896 27.04 13.6974 27.0411 13.7051 27.0402ZM25.3333 13.6446C24.9093 13.5241 24.2602 13.9979 23.6992 13.8299C22.3474 13.4251 23.5729 12.3607 21.8304 12.3945C20.5369 12.4196 19.4849 12.5714 18.7624 13.6446C18.2135 14.46 18.1218 15.1812 18.3734 16.1314C18.7317 17.4847 20.5579 17.2188 20.7993 18.5977C20.9026 19.188 20.4593 19.5522 20.6391 20.1239C20.8403 20.7639 21.5523 20.7511 21.8304 21.3617C22.2973 22.3865 20.3617 23.6812 21.3579 24.2065C22.0886 24.5918 23.8735 23.1868 24.9686 20.9966C25.6923 19.5491 27.7119 14.3203 25.3333 13.6446Z" fill="#2F7BF7"/>
<path d="M18.0985 5.40338C16.6796 4.95885 14.968 4.87992 14.1605 5.16681C12.6778 5.69363 15.5318 6.55776 15.6611 6.66987C16.0662 7.02124 15.9063 7.64899 16.4155 7.81736C17.5151 8.18096 19.7362 5.91647 18.0985 5.40338Z" fill="#2F7BF7"/>
<path d="M20.3361 7.50089C20.0517 8.02344 20.8672 9.42171 21.2438 8.9612C21.706 8.39616 21.9218 8.43789 22.1403 8.16559C22.4655 7.76036 21.846 7.20503 21.3359 7.10575C20.9238 7.02554 20.5368 7.13213 20.3361 7.50089Z" fill="#2F7BF7"/>
<path d="M21.5285 9.71247C20.9769 10.2111 20.2039 10.5172 20.3885 11.2375C20.6069 12.0898 21.8137 11.2104 22.6169 11.5696C23.3202 11.8841 23.4177 12.9065 24.1772 12.7768C24.7736 12.675 25.3976 12.1433 25.2724 11.6811C24.8782 10.2255 24.353 8.87642 23.0822 8.7608C22.4171 8.70028 22.0563 9.23533 21.5285 9.71247Z" fill="#2F7BF7"/>
</g>
</g>
<defs>
<clipPath id="clip0_2257_37603">
<rect width="32" height="32" fill="white"/>
</clipPath>
<clipPath id="clip1_2257_37603">
<rect width="32" height="32" fill="white" transform="matrix(-1 0 0 1 32 0)"/>
</clipPath>
</defs>
</svg>
