<svg width="32" height="31" viewBox="0 0 32 31" fill="none" xmlns="http://www.w3.org/2000/svg">
<path d="M6.11279 7.29712C11.0528 1.77258 19.4861 1.34761 24.9461 6.34466C30.4061 11.3417 30.8261 19.8761 25.8875 25.4006L29.1381 28.6884C29.2316 28.7827 29.2953 28.903 29.3211 29.034C29.3469 29.165 29.3337 29.3008 29.2832 29.4242C29.2326 29.5476 29.147 29.6531 29.0371 29.7272C28.9273 29.8013 28.7982 29.8407 28.6661 29.8405H15.9995C12.6935 29.8403 9.5055 28.5974 7.05413 26.3531C1.59279 21.3547 1.17146 12.8217 6.11279 7.29712ZM15.9995 28.4914H27.0568L24.4848 25.889C24.3598 25.7625 24.2896 25.5909 24.2896 25.4121C24.2896 25.2332 24.3598 25.0617 24.4848 24.9352C26.1626 23.2374 27.3052 21.0743 27.7682 18.7195C28.2312 16.3647 27.9937 13.9239 27.0857 11.7056C26.1778 9.48739 24.6402 7.59134 22.6674 6.25721C20.6945 4.92309 18.375 4.21079 16.0021 4.21039C12.8199 4.21003 9.76783 5.48877 7.5174 7.76531C5.26696 10.0418 4.00248 13.1297 4.00213 16.3495C4.00178 19.5694 5.26558 22.6575 7.51551 24.9346C9.76545 27.2116 12.8172 28.491 15.9995 28.4914Z" fill="#2F7BF7" stroke="#2F7BF7" stroke-width="1.07271"/>
<path d="M13.8267 15.9199C13.2227 15.7969 12.8066 16.1461 12.2495 15.8801C11.8615 15.6949 11.6344 15.3471 11.4284 15.1424C10.701 14.4205 9.23425 15.5279 8.51802 15.0524C8.21271 14.8497 10.0151 14.5604 10.2442 14.3434C10.7445 13.8695 11.6224 14.2882 11.9991 14.2882C12.5742 14.2882 12.2836 13.2559 12.7296 12.7793C13.1824 12.2956 13.7413 12.4258 14.2052 11.953C14.7852 11.3619 15.016 10.8405 15.0729 10.0099C15.0973 9.65323 15.1699 9.41097 15 9.09739C14.6812 8.50885 13.6952 9.55935 13.3333 8.76043C13.2057 8.47852 13.331 8.22951 13.258 7.97016C12.4029 4.93209 4.33333 12.7792 7.33328 16.5107C7.86397 17.1708 8.71782 16.8016 9.28787 17.4273C10.0809 18.2977 9.14649 19.9327 9.83564 20.4062C10.161 20.6284 10.9163 20.9462 11.3853 21.5315C12.2892 22.6596 11.2228 23.9234 11.9246 25.2086C12.1986 25.7102 12.7739 26.1604 13.3605 26.0421C14.7449 25.7631 14.0924 23.9392 14.6373 23.1001C15.2258 22.1938 16.2628 21.9542 16.8905 21.5131C17.5181 21.072 17.4463 19.4405 16.9551 18.2789C16.3559 16.8622 15.3208 16.2242 13.8267 15.9199Z" fill="#2F7BF7"/>
<path d="M14.3827 26.8061L14.345 26.791C14.3495 26.7964 14.3553 26.8006 14.3619 26.8033C14.3685 26.8059 14.3756 26.8069 14.3827 26.8061ZM25.001 14.4409C24.6138 14.3297 24.021 14.767 23.5088 14.6119C22.2744 14.2382 23.3934 13.2558 21.8023 13.287C20.6211 13.3101 19.6605 13.4502 19.0007 14.4409C18.4994 15.1936 18.4158 15.8593 18.6455 16.7364C18.9727 17.9855 20.6403 17.7401 20.8607 19.0129C20.9551 19.5579 20.5502 19.894 20.7144 20.4218C20.8981 21.0126 21.5483 21.0007 21.8023 21.5643C22.2286 22.5104 20.4611 23.7054 21.3708 24.1903C22.038 24.546 23.6679 23.2491 24.6679 21.2274C25.3288 19.8912 27.1729 15.0646 25.001 14.4409Z" fill="#2F7BF7"/>
<path d="M18.3942 6.83247C17.0986 6.42213 15.5356 6.34927 14.7983 6.61409C13.4444 7.10039 16.0505 7.89804 16.1685 8.00153C16.5385 8.32588 16.3925 8.90534 16.8574 9.06076C17.8615 9.39638 19.8897 7.30608 18.3942 6.83247Z" fill="#2F7BF7"/>
<path d="M20.4368 8.77005C20.177 9.25241 20.9217 10.5431 21.2657 10.118C21.6877 9.59645 21.8847 9.63497 22.0843 9.38362C22.3813 9.00956 21.8155 8.49695 21.3498 8.40531C20.9735 8.33127 20.6201 8.42966 20.4368 8.77005Z" fill="#2F7BF7"/>
<path d="M21.5244 10.8092C21.0207 11.2695 20.3148 11.552 20.4834 12.2169C20.6828 13.0037 21.7848 12.1919 22.5182 12.5234C23.1605 12.8138 23.2495 13.7575 23.943 13.6378C24.4876 13.5439 25.0574 13.053 24.9431 12.6264C24.5831 11.2828 24.1036 10.0374 22.9431 9.93071C22.3358 9.87486 22.0064 10.3687 21.5244 10.8092Z" fill="#2F7BF7"/>
</svg>
