<svg width="32" height="30" viewBox="0 0 32 30" fill="none" xmlns="http://www.w3.org/2000/svg">
<path d="M16.0005 13.3531C15.7353 13.3531 15.481 13.4563 15.2934 13.6399C15.1059 13.8236 15.0005 14.0726 15.0005 14.3323C15.0005 14.592 15.1059 14.8411 15.2934 15.0247C15.481 15.2083 15.7353 15.3115 16.0005 15.3115C16.2658 15.3115 16.5201 15.2083 16.7076 15.0247C16.8952 14.8411 17.0005 14.592 17.0005 14.3323C17.0005 14.0726 16.8952 13.8236 16.7076 13.6399C16.5201 13.4563 16.2658 13.3531 16.0005 13.3531ZM12.0005 13.3531C11.7353 13.3531 11.481 13.4563 11.2934 13.6399C11.1059 13.8236 11.0005 14.0726 11.0005 14.3323C11.0005 14.592 11.1059 14.8411 11.2934 15.0247C11.481 15.2083 11.7353 15.3115 12.0005 15.3115C12.2658 15.3115 12.5201 15.2083 12.7076 15.0247C12.8952 14.8411 13.0005 14.592 13.0005 14.3323C13.0005 14.0726 12.8952 13.8236 12.7076 13.6399C12.5201 13.4563 12.2658 13.3531 12.0005 13.3531ZM20.0005 13.3531C19.7353 13.3531 19.481 13.4563 19.2934 13.6399C19.1059 13.8236 19.0005 14.0726 19.0005 14.3323C19.0005 14.592 19.1059 14.8411 19.2934 15.0247C19.481 15.2083 19.7353 15.3115 20.0005 15.3115C20.2658 15.3115 20.5201 15.2083 20.7076 15.0247C20.8952 14.8411 21.0005 14.592 21.0005 14.3323C21.0005 14.0726 20.8952 13.8236 20.7076 13.6399C20.5201 13.4563 20.2658 13.3531 20.0005 13.3531Z" fill="#FFD90F"/>
<path d="M25.8872 5.5719C20.9472 0.225572 12.5139 -0.185684 7.05388 4.65017C1.59388 9.48602 1.17388 17.7451 6.11254 23.0914L2.86188 26.2731C2.7684 26.3644 2.70471 26.4808 2.67889 26.6076C2.65307 26.7344 2.66627 26.8658 2.71683 26.9852C2.76739 27.1047 2.85302 27.2067 2.96287 27.2784C3.07272 27.3501 3.20185 27.3883 3.33388 27.3881L16.0005 27.3881C18.8498 27.3879 21.6115 26.4945 23.8895 24.8571C23.9669 24.8015 24.0437 24.745 24.12 24.6877L23.667 23.3705C21.5221 25.1155 18.8122 26.0822 16.0005 26.0825L4.94321 26.0825L7.51521 23.564C7.64019 23.4416 7.7104 23.2756 7.7104 23.1025C7.7104 22.9294 7.64019 22.7634 7.51521 22.641C5.83738 20.998 4.69476 18.9047 4.2318 16.6258C3.76884 14.347 4.00634 11.9849 4.91427 9.83821C5.8222 7.69152 7.35979 5.85663 9.33263 4.56554C11.3055 3.27445 13.625 2.58514 15.9979 2.58475C19.1801 2.5844 22.2322 3.82189 24.4826 6.02499C26.733 8.22808 27.9975 11.2163 27.9979 14.3323L29.2973 13.3531C29.0848 10.5588 27.956 7.81022 25.8872 5.5719Z" fill="#FFD90F"/>
<path d="M16.0005 13.3531C15.7353 13.3531 15.481 13.4563 15.2934 13.6399C15.1059 13.8236 15.0005 14.0726 15.0005 14.3323C15.0005 14.592 15.1059 14.8411 15.2934 15.0247C15.481 15.2083 15.7353 15.3115 16.0005 15.3115C16.2658 15.3115 16.5201 15.2083 16.7076 15.0247C16.8952 14.8411 17.0005 14.592 17.0005 14.3323C17.0005 14.0726 16.8952 13.8236 16.7076 13.6399C16.5201 13.4563 16.2658 13.3531 16.0005 13.3531ZM12.0005 13.3531C11.7353 13.3531 11.481 13.4563 11.2934 13.6399C11.1059 13.8236 11.0005 14.0726 11.0005 14.3323C11.0005 14.592 11.1059 14.8411 11.2934 15.0247C11.481 15.2083 11.7353 15.3115 12.0005 15.3115C12.2658 15.3115 12.5201 15.2083 12.7076 15.0247C12.8952 14.8411 13.0005 14.592 13.0005 14.3323C13.0005 14.0726 12.8952 13.8236 12.7076 13.6399C12.5201 13.4563 12.2658 13.3531 12.0005 13.3531ZM20.0005 13.3531C19.7353 13.3531 19.481 13.4563 19.2934 13.6399C19.1059 13.8236 19.0005 14.0726 19.0005 14.3323C19.0005 14.592 19.1059 14.8411 19.2934 15.0247C19.481 15.2083 19.7353 15.3115 20.0005 15.3115C20.2658 15.3115 20.5201 15.2083 20.7076 15.0247C20.8952 14.8411 21.0005 14.592 21.0005 14.3323C21.0005 14.0726 20.8952 13.8236 20.7076 13.6399C20.5201 13.4563 20.2658 13.3531 20.0005 13.3531Z" stroke="#FFD90F" stroke-width="1.07271"/>
<path d="M25.8872 5.5719C20.9472 0.225572 12.5139 -0.185684 7.05388 4.65017C1.59388 9.48602 1.17388 17.7451 6.11254 23.0914L2.86188 26.2731C2.7684 26.3644 2.70471 26.4808 2.67889 26.6076C2.65307 26.7344 2.66627 26.8658 2.71683 26.9852C2.76739 27.1047 2.85302 27.2067 2.96287 27.2784C3.07272 27.3501 3.20185 27.3883 3.33388 27.3881L16.0005 27.3881C18.8498 27.3879 21.6115 26.4945 23.8895 24.8571C23.9669 24.8015 24.0437 24.745 24.12 24.6877L23.667 23.3705C21.5221 25.1155 18.8122 26.0822 16.0005 26.0825L4.94321 26.0825L7.51521 23.564C7.64019 23.4416 7.7104 23.2756 7.7104 23.1025C7.7104 22.9294 7.64019 22.7634 7.51521 22.641C5.83738 20.998 4.69476 18.9047 4.2318 16.6258C3.76884 14.347 4.00634 11.9849 4.91427 9.83821C5.8222 7.69152 7.35979 5.85663 9.33263 4.56554C11.3055 3.27445 13.625 2.58514 15.9979 2.58475C19.1801 2.5844 22.2322 3.82189 24.4826 6.02499C26.733 8.22808 27.9975 11.2163 27.9979 14.3323L29.2973 13.3531C29.0848 10.5588 27.956 7.81022 25.8872 5.5719Z" stroke="#FFD90F" stroke-width="1.07271"/>
</svg>
