<svg width="170" height="199" viewBox="0 0 170 199" fill="none" xmlns="http://www.w3.org/2000/svg">
<path d="M124.426 110.978C125.632 105.719 131.797 106.573 140.079 110.337C149.996 114.875 164.042 130.704 161.12 143.304C160.852 144.451 160.45 145.573 159.887 146.667C153.132 159.667 126.088 123.47 124.774 117.544C124.131 114.742 124.05 112.579 124.426 110.978Z" fill="#6EA2F9"/>
<path d="M124.426 110.979C125.632 105.72 131.797 106.574 140.079 110.338C149.996 114.876 164.042 130.705 161.12 143.305C156.751 132.44 146.458 115.01 124.426 110.979Z" fill="#3B78DC"/>
<path d="M146.726 141.541C144.394 139.005 140.91 134.44 141.714 133.559C142.545 132.678 147.879 135.615 151.524 139.939C153.99 142.875 156.134 147.013 155.33 147.707C154.419 148.508 149.782 144.851 146.726 141.541Z" fill="#EFF2F9"/>
<path d="M121.924 122.947C121.924 144.916 106.431 170.729 81.8521 170.729C66.6008 170.729 54.0566 161.439 46.7392 149C42.2362 141.366 39.6899 132.557 39.6899 123.988C39.6899 101.486 64.3761 102.553 80.0026 102.553C97.157 102.553 117.501 101.245 121.307 117.155C121.709 118.89 121.924 120.812 121.924 122.947Z" fill="#6EA2F9"/>
<path d="M121.924 122.948C121.924 144.917 106.432 170.73 81.8527 170.73C66.6014 170.73 54.0572 161.44 46.7398 149.001C62.0179 156.155 105.52 170.997 121.308 117.156C121.71 118.891 121.924 120.813 121.924 122.948Z" fill="#3B78DC"/>
<path d="M48.213 115.287C45.0233 120.465 47.2748 127.859 52.7696 130.769C58.5592 133.839 66.4663 131.089 68.6106 125.003C70.6477 119.211 66.7075 112.724 61.0519 110.909C56.5221 109.441 50.8665 110.989 48.213 115.287Z" fill="#EFF2F9"/>
<path d="M9.32147 138.884C9.5627 148.975 11.9214 155.141 18.676 151.938C19.8285 151.377 21.1151 150.549 22.5357 149.428C27.3067 145.638 48.1064 105.571 33.418 105.224C29.6119 105.144 26.1542 106.559 23.1254 108.908C14.3606 115.661 9.10704 130.129 9.32147 138.884Z" fill="#6EA2F9"/>
<path d="M9.32168 138.885C9.56292 148.976 11.9216 155.142 18.6762 151.939C16.5051 146.6 14.5752 134.268 23.1256 108.909C14.3608 115.662 9.10725 130.13 9.32168 138.885Z" fill="#3B78DC"/>
<path d="M29.1291 124.389C26.4219 130.662 22.3477 141.58 23.5271 142.141C24.5724 142.621 30.0136 134.72 32.9352 125.591C34.5702 120.519 35.5887 114.513 34.731 114.219C33.6857 113.899 29.9868 122.441 29.1291 124.389Z" fill="#EFF2F9"/>
<path d="M41.6732 41.1142C41.5538 40.9342 38.9709 36.8642 33.3956 33.9459C28.2911 31.2636 19.5587 29.0513 7.11617 33.7722L7.93836 35.9747C17.2308 32.4435 25.3804 32.4366 32.201 35.967C37.2751 38.5976 39.6741 42.3308 39.7026 42.3557L41.6732 41.1142Z" fill="#094EBE"/>
<path d="M37.8953 56.2926C36.4479 54.8511 35.3221 53.1694 34.5448 51.381C32.749 47.2702 32.749 42.5187 34.7592 38.4346C36.7963 34.2971 40.656 31.3341 45.1323 30.2664C46.392 29.9728 47.7322 29.8126 49.0724 29.8393C52.128 47.2702 37.8953 56.2926 37.8953 56.2926Z" fill="#6EA2F9"/>
<path d="M37.8969 56.2932C36.4495 54.8518 35.3237 53.1701 34.5464 51.3816C36.3422 48.2852 38.1381 44.9752 39.9071 41.4783C41.8638 37.6078 43.606 33.8707 45.1339 30.2937C46.3936 30.0001 47.7338 29.84 49.074 29.8666C45.3483 38.6755 41.6226 47.4844 37.8969 56.2932Z" fill="#3B78DC"/>
<path d="M124.337 73.8562C122.755 95.6381 72.6325 102.819 49.1793 89.6587C42.666 86.0017 38.2166 80.7698 37.4393 73.8562C33.8208 42.0375 54.9957 12.8882 79.3066 12.8882C88.125 12.8882 98.4713 16.2516 107.048 23.699C118.038 33.2019 126.106 49.4316 124.337 73.8562Z" fill="#6EA2F9"/>
<path d="M10.679 32.1547C12.0064 34.8875 10.8823 38.1745 8.16839 39.4964C5.45444 40.8184 2.1783 39.6746 0.850923 36.9418C-0.476454 34.209 0.647586 30.922 3.36154 29.6001C6.07549 28.2782 9.35163 29.4219 10.679 32.1547Z" fill="#FFD90F"/>
<path d="M6.61457 32.2145C7.33239 33.6924 6.72453 35.4699 5.25688 36.1848C3.78923 36.8997 2.01755 36.2812 1.29973 34.8033C0.581908 33.3255 1.18977 31.5479 2.65742 30.8331C4.12507 30.1182 5.89675 30.7367 6.61457 32.2145Z" fill="#094EBE"/>
<path d="M111.338 54.6392C111.338 59.0169 106.513 61.6863 100.321 63.2879C93.7814 64.9696 85.7135 65.4501 80.0847 65.3967C72.0168 65.3166 56.4974 63.9285 50.8955 58.8568C49.5821 57.6555 48.8048 56.2675 48.8048 54.6392C48.8048 49.9144 50.7883 45.6168 53.9779 42.5203C57.1675 39.4239 61.617 37.502 66.4952 37.502H93.6473C99.3297 37.502 104.396 40.0912 107.612 44.1219C109.944 47.0315 111.338 50.6885 111.338 54.6392Z" fill="#123979"/>
<path d="M111.339 54.6374C111.339 59.0151 106.514 61.6844 100.322 63.2861C93.7822 64.9677 85.7143 65.4482 80.0855 65.3948C72.0176 65.3148 56.4983 63.9267 50.8963 58.8549C66.8445 58.3745 93.9698 55.7585 107.64 44.1201C109.945 47.0297 111.339 50.6867 111.339 54.6374Z" fill="#123979"/>
<path d="M77.9228 80.8436C74.4869 80.8436 71.8025 80.061 69.8698 79.0481C66.3802 77.2296 65.2886 74.6859 66.3981 74.6284C68.134 74.5478 73.2342 74.9276 77.9228 74.9276C83.2914 74.9276 85.9937 74.9967 88.7496 74.9277C88.8748 74.9277 89.0001 74.9161 89.1075 74.9161C91.9171 74.9277 88.4811 80.8436 77.9228 80.8436Z" fill="#123979"/>
<path d="M124.338 73.8591C122.757 95.641 72.634 102.822 49.1808 89.6616C63.5208 92.0374 106.165 97.2426 113.831 76.7687C120.425 59.1776 112.277 35.6874 107.05 23.6753C118.039 33.2049 126.107 49.4345 124.338 73.8591Z" fill="#3B78DC"/>
<path d="M51.2989 34.2982C52.5855 36.0066 60.573 32.4296 65.9069 28.5057C71.0264 24.7419 76.2799 18.816 75.1006 17.1343C74.082 15.6394 68.1852 17.7749 64.4863 19.7235C56.2308 24.128 49.8783 32.4563 51.2989 34.2982Z" fill="#EFF2F9"/>
<path d="M39.6927 68.1989C39.8803 74.0181 43.4452 79.5436 44.8926 79.1699C46.4204 78.7695 45.8039 71.8292 45.0802 68.012C44.8926 66.9176 43.6596 60.2175 42.0782 60.2442C40.8452 60.2442 39.5587 64.4351 39.6927 68.1989Z" fill="#EFF2F9"/>
<path d="M105.79 50.9547C105.79 55.3057 102.251 58.8292 97.8824 58.8292C94.5052 58.8292 91.6372 56.7205 90.4846 53.7575C90.163 52.8766 89.9753 51.9423 89.9753 50.9547C89.9753 46.6036 93.5134 43.0801 97.8824 43.0801C101.099 43.0801 103.86 45.002 105.093 47.7247C105.521 48.7124 105.79 49.8068 105.79 50.9547Z" fill="#3B78DC"/>
<path d="M97.8822 43.0803C101.099 43.0803 103.859 45.0022 105.092 47.7249C105.548 48.7126 105.789 49.807 105.789 50.9549C105.789 55.3059 102.251 58.8294 97.8822 58.8294C94.5049 58.8294 91.6369 56.7207 90.4844 53.7577C90.1627 52.8768 89.9751 51.9425 89.9751 50.9549C89.9751 46.6038 93.5132 43.0803 97.8822 43.0803ZM97.8822 41.7456C92.7895 41.7456 88.6349 45.8831 88.6349 50.9549C88.6349 52.076 88.8493 53.1971 89.2514 54.2382C90.6184 57.7884 94.0761 60.1641 97.909 60.1641C103.002 60.1641 107.156 56.0266 107.156 50.9549C107.156 49.6469 106.888 48.3656 106.352 47.1911C104.824 43.8811 101.527 41.7456 97.8822 41.7456Z" fill="#BCD8FF"/>
<path d="M105.092 47.7247C102.143 54.8252 94.826 54.6117 90.5106 53.7842C90.1622 52.9033 89.9745 51.969 89.9745 50.9814C89.9477 46.6303 93.4858 43.1068 97.8548 43.0801C101.071 43.0801 103.832 44.9753 105.092 47.7247Z" fill="#123979"/>
<path d="M94.9072 50.9556C96.3579 50.9556 97.5339 49.7844 97.5339 48.3396C97.5339 46.8948 96.3579 45.7236 94.9072 45.7236C93.4565 45.7236 92.2804 46.8948 92.2804 48.3396C92.2804 49.7844 93.4565 50.9556 94.9072 50.9556Z" fill="#EFF2F9"/>
<path d="M104.073 52.4784C104.501 52.772 103.912 55.4947 101.955 56.5625C100.213 57.4967 97.9078 56.8027 97.8541 56.2955C97.8273 55.9218 99.0067 55.8151 101.017 54.6138C103.108 53.3593 103.778 52.2915 104.073 52.4784Z" fill="#EFF2F9"/>
<path d="M70.7046 50.9547C70.7046 55.3057 67.1665 58.8292 62.7975 58.8292C59.4202 58.8292 56.5523 56.7205 55.3997 53.7575C55.0781 52.8766 54.8904 51.9423 54.8904 50.9547C54.8904 46.6036 58.4285 43.0801 62.7975 43.0801C66.014 43.0801 68.7747 45.002 70.0077 47.7247C70.4634 48.7124 70.7046 49.8068 70.7046 50.9547Z" fill="#3B78DC"/>
<path d="M62.7973 43.0803C66.0137 43.0803 68.7745 45.0022 70.0075 47.7249C70.4631 48.7126 70.7043 49.807 70.7043 50.9549C70.7043 55.3059 67.1663 58.8294 62.7973 58.8294C59.42 58.8294 56.552 56.7207 55.3994 53.7577C55.0778 52.8768 54.8902 51.9425 54.8902 50.9549C54.8902 46.6038 58.4283 43.0803 62.7973 43.0803ZM62.8241 41.7456C57.7314 41.7456 53.5768 45.8831 53.5768 50.9549C53.5768 52.076 53.7912 53.1971 54.1933 54.2382C55.5603 57.7884 59.0179 60.1641 62.8509 60.1641C67.9436 60.1641 72.0981 56.0266 72.0981 50.9549C72.0981 49.6469 71.8301 48.3656 71.294 47.1911C69.7662 43.8811 66.4426 41.7456 62.8241 41.7456Z" fill="#BCD8FF"/>
<path d="M70.0079 47.7247C67.0594 54.8252 59.742 54.6117 55.4267 53.7842C55.0782 52.9033 54.8906 51.969 54.8906 50.9814C54.8638 46.6303 58.4019 43.1068 62.7709 43.0801C66.0141 43.0801 68.7749 44.9753 70.0079 47.7247Z" fill="#123979"/>
<path d="M59.8491 50.9556C61.2998 50.9556 62.4758 49.7844 62.4758 48.3396C62.4758 46.8948 61.2998 45.7236 59.8491 45.7236C58.3984 45.7236 57.2223 46.8948 57.2223 48.3396C57.2223 49.7844 58.3984 50.9556 59.8491 50.9556Z" fill="#EFF2F9"/>
<path d="M69.0145 52.4784C69.4434 52.772 68.8537 55.4947 66.897 56.5625C65.1548 57.4967 62.8496 56.8027 62.796 56.2955C62.7692 55.9218 63.9486 55.8151 65.9589 54.6138C68.0496 53.3593 68.7197 52.2915 69.0145 52.4784Z" fill="#EFF2F9"/>
<path d="M82.4178 39.2895C82.4982 39.8234 78.9333 41.0513 75.2612 41.3716C69.284 41.9322 63.816 40.037 63.8964 39.3696C63.9232 39.076 67.7025 39.0226 75.2612 38.9692C81.3188 38.9425 82.3641 39.0226 82.4178 39.2895Z" fill="#BCD8FF"/>
<path d="M84.3436 198.224C60.7472 198.224 41.6185 193.288 41.6185 187.199C41.6185 181.111 60.7472 176.175 84.3436 176.175C107.94 176.175 127.069 181.111 127.069 187.199C127.069 193.288 107.94 198.224 84.3436 198.224Z" fill="#BCD8FF"/>
</svg>
