<svg width="170" height="211" viewBox="0 0 170 211" fill="none" xmlns="http://www.w3.org/2000/svg">
<path d="M39.2362 116.154C37.9601 121.703 31.4378 120.801 22.6754 116.83C12.1831 112.041 -2.67625 95.3366 0.414716 82.0408C0.698292 80.8296 1.12365 79.6465 1.71916 78.4915C8.86526 64.7732 37.478 102.97 38.8675 109.224C39.5481 112.182 39.6332 114.463 39.2362 116.154Z" fill="#6EA2F9"/>
<path d="M39.2362 116.152C37.9601 121.702 31.4378 120.8 22.6754 116.828C12.1831 112.04 -2.67625 95.3353 0.414716 82.0396C5.03699 93.5043 15.9263 111.899 39.2362 116.152Z" fill="#3B78DC"/>
<path d="M15.6429 83.9012C18.11 86.5773 21.7965 91.3942 20.9457 92.3238C20.0667 93.2534 14.4235 90.1548 10.5669 85.5914C7.958 82.4928 5.6894 78.1266 6.54013 77.3942C7.50428 76.5491 12.4101 80.4083 15.6429 83.9012Z" fill="#EFF2F9"/>
<path d="M135.562 130.743C135.562 153.927 119.171 181.166 93.1672 181.166C77.0317 181.166 63.7604 171.363 56.0188 158.236C51.2548 150.18 48.5608 140.884 48.5608 131.842C48.5608 108.096 74.6781 109.222 91.2105 109.222C109.359 109.222 130.883 107.842 134.909 124.631C135.335 126.462 135.562 128.49 135.562 130.743Z" fill="#6EA2F9"/>
<path d="M135.562 130.744C135.562 153.928 119.172 181.167 93.1678 181.167C77.0324 181.167 63.7611 171.364 56.0195 158.237C72.1833 165.787 118.207 181.449 134.91 124.632C135.335 126.463 135.562 128.491 135.562 130.744Z" fill="#3B78DC"/>
<path d="M57.578 122.66C54.2035 128.124 56.5855 135.927 62.3988 138.998C68.524 142.237 76.8895 139.336 79.1581 132.913C81.3133 126.8 77.1447 119.955 71.1613 118.04C66.3688 116.491 60.3854 118.124 57.578 122.66Z" fill="#EFF2F9"/>
<path d="M169.993 147.562C169.738 158.21 167.243 164.717 160.096 161.336C158.877 160.745 157.516 159.872 156.013 158.688C150.965 154.688 128.96 112.407 144.5 112.041C148.527 111.956 152.185 113.449 155.389 115.928C164.662 123.055 170.22 138.322 169.993 147.562Z" fill="#6EA2F9"/>
<path d="M169.993 147.563C169.738 158.21 167.242 164.717 160.096 161.337C162.393 155.703 164.435 142.689 155.389 115.929C164.662 123.055 170.22 138.323 169.993 147.563Z" fill="#3B78DC"/>
<path d="M149.037 132.265C151.901 138.885 156.212 150.406 154.964 150.997C153.858 151.505 148.102 143.167 145.011 133.533C143.281 128.181 142.203 121.843 143.111 121.533C144.217 121.195 148.13 130.209 149.037 132.265Z" fill="#EFF2F9"/>
<path d="M133.596 60.4044C135.128 58.8833 136.319 57.1086 137.141 55.2213C139.041 50.8833 139.041 45.8692 136.914 41.5593C134.759 37.1931 130.676 34.0663 125.94 32.9396C124.607 32.6297 123.189 32.4607 121.771 32.4889C118.539 50.8833 133.596 60.4044 133.596 60.4044Z" fill="#6EA2F9"/>
<path d="M133.595 60.405C135.126 58.8839 136.317 57.1092 137.139 55.2219C135.239 51.9543 133.339 48.4614 131.468 44.7712C129.398 40.6867 127.555 36.743 125.938 32.9684C124.605 32.6585 123.187 32.4895 121.77 32.5177C125.711 41.8135 129.653 51.1092 133.595 60.405Z" fill="#3B78DC"/>
<path d="M42.1437 78.9391C43.8168 101.925 96.8454 109.503 121.658 95.6152C128.549 91.756 133.256 86.2349 134.079 78.9391C137.907 45.3617 115.505 14.6011 89.7844 14.6011C80.4547 14.6011 69.5087 18.1504 60.4343 26.0095C48.8078 36.0377 40.2721 53.1645 42.1437 78.9391Z" fill="#6EA2F9"/>
<path d="M135.099 44.3473C135.297 44.2346 139.778 41.8121 143.266 36.1501C146.47 30.967 149.447 21.9248 145.392 8.45996L143.01 9.16419C146.045 19.2205 145.449 27.8121 141.224 34.7417C138.076 39.8966 133.964 42.1501 133.936 42.1783L135.099 44.3473Z" fill="#094EBE"/>
<path d="M143.237 11.729C140.027 11.729 137.424 9.14359 137.424 5.95434C137.424 2.76509 140.027 0.179688 143.237 0.179688C146.448 0.179688 149.051 2.76509 149.051 5.95434C149.051 9.14359 146.448 11.729 143.237 11.729Z" fill="#FFD90F"/>
<path d="M55.8963 58.6597C55.8963 63.2794 61.0007 66.0963 67.5512 67.7865C74.4705 69.5611 83.0061 70.0682 88.9612 70.0118C97.4968 69.9273 113.916 68.4625 119.842 63.1104C121.232 61.8428 122.054 60.378 122.054 58.6597C122.054 53.6738 119.956 49.1386 116.581 45.871C113.207 42.6034 108.499 40.5752 103.338 40.5752H74.6123C68.6005 40.5752 63.2409 43.3076 59.838 47.5611C57.3709 50.6315 55.8963 54.4907 55.8963 58.6597Z" fill="#123979"/>
<path d="M55.8955 58.6577C55.8955 63.2774 60.9998 66.0943 67.5504 67.7844C74.4697 69.5591 83.0053 70.0661 88.9603 70.0098C97.496 69.9253 113.915 68.4605 119.842 63.1084C102.969 62.6013 74.2711 59.8408 59.8088 47.5591C57.3701 50.6295 55.8955 54.4887 55.8955 58.6577Z" fill="#123979"/>
<path d="M88.1958 90.7434C93.6404 90.7434 97.8941 88.8279 100.957 86.349C106.486 81.8983 108.216 75.6729 106.458 75.5321C103.707 75.3349 97.1568 78.5743 89.7271 78.5743C81.2198 78.5743 75.4066 76.4335 71.0395 76.2645C70.841 76.2645 70.6425 76.2363 70.4723 76.2363C66.0202 76.2645 71.4649 90.7434 88.1958 90.7434Z" fill="#123979"/>
<path d="M42.1422 78.9421C43.8152 101.928 96.8438 109.506 121.657 95.6182C106.485 98.1252 61.3686 103.618 53.2583 82.0126C46.2824 63.4492 54.903 38.6604 60.4328 25.9844C48.8062 36.0407 40.2706 53.1675 42.1422 78.9421Z" fill="#3B78DC"/>
<path d="M119.416 37.1941C118.055 38.9969 109.604 35.2223 103.961 31.0814C98.5446 27.1096 92.9865 20.8561 94.2342 19.0814C95.3118 17.504 101.55 19.7575 105.464 21.8138C114.198 26.4617 120.919 35.2505 119.416 37.1941Z" fill="#EFF2F9"/>
<path d="M131.695 72.9687C131.496 79.1095 127.725 84.9405 126.193 84.5461C124.577 84.1236 125.229 76.7997 125.995 72.7715C126.193 71.6166 127.498 64.5461 129.171 64.5743C130.475 64.5743 131.837 68.9968 131.695 72.9687Z" fill="#EFF2F9"/>
<path d="M61.7662 54.7713C61.7662 59.3628 65.5094 63.0811 70.1317 63.0811C73.7047 63.0811 76.739 60.8558 77.9583 57.729C78.2986 56.7995 78.4971 55.8135 78.4971 54.7713C78.4971 50.1797 74.7539 46.4614 70.1317 46.4614C66.7288 46.4614 63.8079 48.4896 62.5035 51.3628C62.0498 52.4051 61.7662 53.56 61.7662 54.7713Z" fill="#3B78DC"/>
<path d="M70.1319 46.4617C66.729 46.4617 63.8082 48.4898 62.5038 51.3631C62.0217 52.4053 61.7665 53.5603 61.7665 54.7715C61.7665 59.3631 65.5097 63.0814 70.1319 63.0814C73.705 63.0814 76.7392 60.856 77.9586 57.7293C78.2989 56.7997 78.4974 55.8138 78.4974 54.7715C78.4974 50.18 74.7542 46.4617 70.1319 46.4617ZM70.1319 45.0532C75.5199 45.0532 79.9153 49.4194 79.9153 54.7715C79.9153 55.9546 79.6884 57.1377 79.2631 58.2363C77.8168 61.9828 74.1587 64.4898 70.1036 64.4898C64.7157 64.4898 60.3202 60.1237 60.3202 54.7715C60.3202 53.3913 60.6038 52.0391 61.171 50.7997C62.7873 47.3067 66.2753 45.0532 70.1319 45.0532Z" fill="#BCD8FF"/>
<path d="M62.5043 51.3628C65.6236 58.8558 73.3652 58.6304 77.9308 57.7572C78.2994 56.8276 78.4979 55.8417 78.4979 54.7995C78.5263 50.2079 74.7831 46.4896 70.1608 46.4614C66.7579 46.4614 63.8371 48.4614 62.5043 51.3628Z" fill="#123979"/>
<path d="M73.2794 54.7721C71.7445 54.7721 70.5003 53.5362 70.5003 52.0115C70.5003 50.4869 71.7445 49.251 73.2794 49.251C74.8142 49.251 76.0584 50.4869 76.0584 52.0115C76.0584 53.5362 74.8142 54.7721 73.2794 54.7721Z" fill="#EFF2F9"/>
<path d="M63.5826 56.379C63.1289 56.6888 63.7528 59.5621 65.8229 60.6888C67.6661 61.6747 70.1049 60.9423 70.1616 60.4071C70.1899 60.0128 68.9422 59.9001 66.8154 58.6325C64.6035 57.3085 63.8946 56.1818 63.5826 56.379Z" fill="#EFF2F9"/>
<path d="M98.885 54.7713C98.885 59.3628 102.628 63.0811 107.25 63.0811C110.824 63.0811 113.858 60.8558 115.077 57.729C115.417 56.7995 115.616 55.8135 115.616 54.7713C115.616 50.1797 111.873 46.4614 107.25 46.4614C103.848 46.4614 100.927 48.4896 99.6223 51.3628C99.1403 52.4051 98.885 53.56 98.885 54.7713Z" fill="#3B78DC"/>
<path d="M107.251 46.4617C103.848 46.4617 100.927 48.4898 99.6226 51.3631C99.1405 52.4053 98.8853 53.5603 98.8853 54.7715C98.8853 59.3631 102.628 63.0814 107.251 63.0814C110.824 63.0814 113.858 60.856 115.077 57.7293C115.418 56.7997 115.616 55.8138 115.616 54.7715C115.616 50.18 111.873 46.4617 107.251 46.4617ZM107.222 45.0532C112.61 45.0532 117.006 49.4194 117.006 54.7715C117.006 55.9546 116.779 57.1377 116.354 58.2363C114.907 61.9828 111.249 64.4898 107.194 64.4898C101.806 64.4898 97.4107 60.1237 97.4107 54.7715C97.4107 53.3913 97.6943 52.0391 98.2614 50.7997C99.8778 47.3067 103.394 45.0532 107.222 45.0532Z" fill="#BCD8FF"/>
<path d="M99.6222 51.3628C102.741 58.8558 110.483 58.6304 115.049 57.7572C115.417 56.8276 115.616 55.8417 115.616 54.7995C115.644 50.2079 111.901 46.4896 107.279 46.4614C103.847 46.4614 100.927 48.4614 99.6222 51.3628Z" fill="#123979"/>
<path d="M110.37 54.7721C108.835 54.7721 107.591 53.5362 107.591 52.0115C107.591 50.4869 108.835 49.251 110.37 49.251C111.905 49.251 113.149 50.4869 113.149 52.0115C113.149 53.5362 111.905 54.7721 110.37 54.7721Z" fill="#EFF2F9"/>
<path d="M100.673 56.379C100.219 56.6888 100.843 59.5621 102.913 60.6888C104.757 61.6747 107.195 60.9423 107.252 60.4071C107.28 60.0128 106.033 59.9001 103.906 58.6325C101.694 57.3085 100.985 56.1818 100.673 56.379Z" fill="#EFF2F9"/>
<path d="M86.4928 42.4613C86.4078 43.0247 90.1793 44.3205 94.0643 44.6585C100.388 45.2501 106.173 43.2501 106.088 42.5458C106.06 42.236 102.061 42.1796 94.0643 42.1233C87.6555 42.0951 86.5496 42.1796 86.4928 42.4613Z" fill="#BCD8FF"/>
<path d="M143.093 7.34983C141.455 6.81847 140.561 5.06896 141.096 3.44219C141.631 1.81543 143.392 0.927425 145.03 1.45879C146.668 1.99015 147.562 3.73965 147.027 5.36642C146.492 6.99319 144.731 7.88119 143.093 7.34983Z" fill="#094EBE"/>
<path d="M88.1951 90.744C93.6398 90.744 97.8934 88.8285 100.956 86.3496C93.5547 85.3919 79.0073 82.744 71.0388 76.2933C70.8403 76.2933 70.6418 76.2651 70.4717 76.2651C66.0195 76.2651 71.4642 90.744 88.1951 90.744Z" fill="#123979"/>
<path d="M92.0135 210.181C67.0491 210.181 46.8116 204.972 46.8116 198.547C46.8116 192.122 67.0491 186.913 92.0135 186.913C116.978 186.913 137.215 192.122 137.215 198.547C137.215 204.972 116.978 210.181 92.0135 210.181Z" fill="#BCD8FF"/>
</svg>
