<svg width="48" height="46" viewBox="0 0 48 46" fill="none" xmlns="http://www.w3.org/2000/svg">
<path d="M9.17017 10.8277C16.5802 2.62999 29.2302 1.9994 37.4202 9.41437C45.6102 16.8293 46.2402 29.4932 38.8322 37.6909L43.7082 42.5695C43.8484 42.7095 43.9439 42.888 43.9826 43.0824C44.0214 43.2768 44.0016 43.4784 43.9257 43.6615C43.8499 43.8446 43.7214 44.0011 43.5567 44.111C43.3919 44.221 43.1982 44.2795 43.0002 44.2791H24.0002C19.0412 44.2789 14.2592 42.4346 10.5822 39.1043C2.39017 31.6873 1.75816 19.0254 9.17017 10.8277ZM24.0002 42.2773H40.5862L36.7282 38.4156C36.5407 38.2279 36.4354 37.9734 36.4354 37.708C36.4354 37.4426 36.5407 37.188 36.7282 37.0003C39.2449 34.481 40.9588 31.2713 41.6533 27.7771C42.3477 24.2828 41.9915 20.661 40.6296 17.3694C39.2677 14.0778 36.9613 11.2643 34.002 9.28461C31.0428 7.30494 27.5635 6.24799 24.0042 6.24739C19.2308 6.24686 14.6527 8.14435 11.2771 11.5224C7.90142 14.9005 6.0047 19.4825 6.00417 24.2603C6.00364 29.0382 7.89934 33.6206 11.2742 36.9994C14.6491 40.3782 19.2268 42.2767 24.0002 42.2773Z" fill="#2F7BF7" stroke="#2F7BF7" stroke-width="1.62031"/>
<path d="M20.74 23.6239C19.834 23.4414 19.2099 23.9595 18.3742 23.5649C17.7923 23.2901 17.4516 22.7739 17.1425 22.4702C16.0515 21.399 13.8514 23.0422 12.777 22.3366C12.3191 22.0359 15.0227 21.6066 15.3663 21.2846C16.1168 20.5813 17.4336 21.2027 17.9987 21.2027C18.8613 21.2027 18.4255 19.6709 19.0945 18.9637C19.7735 18.2459 20.6119 18.4391 21.3078 17.7376C22.1778 16.8605 22.524 16.0867 22.6094 14.8542C22.646 14.325 22.7548 13.9655 22.5 13.5002C22.0219 12.6269 20.5427 14.1857 20 13.0002C19.8085 12.5818 19.9966 12.2124 19.8871 11.8275C18.6044 7.3194 6.5 18.9636 10.9999 24.5006C11.796 25.4801 13.0767 24.9323 13.9318 25.8607C15.1213 27.1522 13.7197 29.5783 14.7535 30.281C15.2415 30.6107 16.3745 31.0822 17.0779 31.9508C18.4338 33.6247 16.8341 35.5001 17.887 37.4071C18.2979 38.1514 19.1608 38.8195 20.0408 38.644C22.1173 38.2299 21.1386 35.5235 21.956 34.2783C22.8388 32.9335 24.3942 32.5781 25.3357 31.9235C26.2772 31.2689 26.1695 28.848 25.4326 27.1243C24.5338 25.0222 22.9813 24.0754 20.74 23.6239Z" fill="#2F7BF7"/>
<path d="M21.572 39.7781L21.5155 39.7557C21.5223 39.7637 21.531 39.77 21.5409 39.7739C21.5508 39.7778 21.5615 39.7793 21.572 39.7781ZM37.4995 21.4297C36.9187 21.2647 36.0296 21.9137 35.2612 21.6836C33.4096 21.1291 35.0882 19.6712 32.7015 19.7175C30.9297 19.7519 29.4888 19.9597 28.4991 21.4298C27.7472 22.5466 27.6217 23.5345 27.9663 24.836C28.457 26.6896 30.9585 26.3254 31.2891 28.2141C31.4306 29.0227 30.8234 29.5215 31.0696 30.3046C31.3453 31.1813 32.3206 31.1637 32.7015 32C33.3409 33.4038 30.6898 35.1771 32.0542 35.8966C33.0551 36.4244 35.4999 34.5 36.9999 31.5C37.9912 29.5173 40.7574 22.3552 37.4995 21.4297Z" fill="#2F7BF7"/>
<path d="M27.5884 10.1401C25.6449 9.53121 23.3005 9.4231 22.1945 9.81605C20.1636 10.5377 24.0728 11.7213 24.2498 11.8748C24.8048 12.3561 24.5857 13.216 25.2832 13.4466C26.7893 13.9446 29.8317 10.8429 27.5884 10.1401Z" fill="#2F7BF7"/>
<path d="M30.6552 13.0147C30.2656 13.7305 31.3826 15.6457 31.8985 15.0149C32.5316 14.241 32.8271 14.2982 33.1264 13.9252C33.5719 13.3701 32.7233 12.6095 32.0247 12.4735C31.4602 12.3636 30.9301 12.5096 30.6552 13.0147Z" fill="#2F7BF7"/>
<path d="M32.2866 16.0412C31.531 16.7242 30.4723 17.1435 30.7251 18.1301C31.0243 19.2975 32.6772 18.0929 33.7773 18.5849C34.7407 19.0157 34.8743 20.4161 35.9145 20.2386C36.7314 20.0991 37.5861 19.3708 37.4146 18.7377C36.8747 16.7439 36.1554 14.896 34.4146 14.7377C33.5036 14.6548 33.0095 15.3876 32.2866 16.0412Z" fill="#2F7BF7"/>
</svg>
