<svg width="48" height="46" viewBox="0 0 48 46" fill="none" xmlns="http://www.w3.org/2000/svg">
<path d="M23.9998 20.476C23.602 20.476 23.2205 20.6341 22.9392 20.9157C22.6579 21.1973 22.4998 21.5792 22.4998 21.9774C22.4998 22.3756 22.6579 22.7575 22.9392 23.039C23.2205 23.3206 23.602 23.4788 23.9998 23.4788C24.3977 23.4788 24.7792 23.3206 25.0605 23.039C25.3418 22.7575 25.4998 22.3756 25.4998 21.9774C25.4998 21.5792 25.3418 21.1973 25.0605 20.9157C24.7792 20.6341 24.3977 20.476 23.9998 20.476ZM17.9998 20.476C17.602 20.476 17.2205 20.6341 16.9392 20.9157C16.6579 21.1973 16.4998 21.5792 16.4998 21.9774C16.4998 22.3756 16.6579 22.7575 16.9392 23.039C17.2205 23.3206 17.602 23.4788 17.9998 23.4788C18.3977 23.4788 18.7792 23.3206 19.0605 23.039C19.3418 22.7575 19.4998 22.3756 19.4998 21.9774C19.4998 21.5792 19.3418 21.1973 19.0605 20.9157C18.7792 20.6341 18.3977 20.476 17.9998 20.476ZM29.9998 20.476C29.602 20.476 29.2205 20.6341 28.9392 20.9157C28.6579 21.1973 28.4998 21.5792 28.4998 21.9774C28.4998 22.3756 28.6579 22.7575 28.9392 23.039C29.2205 23.3206 29.602 23.4788 29.9998 23.4788C30.3977 23.4788 30.7792 23.3206 31.0605 23.039C31.3418 22.7575 31.4998 22.3756 31.4998 21.9774C31.4998 21.5792 31.3418 21.1973 31.0605 20.9157C30.7792 20.6341 30.3977 20.476 29.9998 20.476Z" fill="#FFD90F"/>
<path d="M38.8298 8.54474C31.4198 0.347033 18.7698 -0.28356 10.5798 7.13141C2.38984 14.5464 1.75984 27.2103 9.16784 35.408L4.29184 40.2866C4.15162 40.4266 4.05609 40.6051 4.01736 40.7995C3.97863 40.9939 3.99843 41.1954 4.07427 41.3785C4.1501 41.5617 4.27855 41.7181 4.44333 41.8281C4.60811 41.938 4.8018 41.9965 4.99984 41.9962H23.9998C28.2738 41.996 32.4163 40.626 35.8333 38.1154C35.9494 38.0301 36.0646 37.9435 36.179 37.8556L35.4995 35.8358C32.2822 38.5117 28.2174 39.9938 23.9998 39.9943H7.41384L11.2718 36.1327C11.4593 35.945 11.5646 35.6904 11.5646 35.425C11.5646 35.1596 11.4593 34.905 11.2718 34.7173C8.7551 32.198 7.04116 28.9884 6.34672 25.4941C5.65228 21.9999 6.00853 18.378 7.37043 15.0864C8.73232 11.7948 11.0387 8.98133 13.998 7.00165C16.9572 5.02198 20.4365 3.96503 23.9958 3.96443C28.7692 3.9639 33.3473 5.86139 36.7229 9.23947C40.0986 12.6176 41.9953 17.1995 41.9958 21.9774L43.9449 20.476C43.6262 16.1914 41.933 11.9768 38.8298 8.54474Z" fill="#FFD90F"/>
<path d="M23.9998 20.476C23.602 20.476 23.2205 20.6341 22.9392 20.9157C22.6579 21.1973 22.4998 21.5792 22.4998 21.9774C22.4998 22.3756 22.6579 22.7575 22.9392 23.039C23.2205 23.3206 23.602 23.4788 23.9998 23.4788C24.3977 23.4788 24.7792 23.3206 25.0605 23.039C25.3418 22.7575 25.4998 22.3756 25.4998 21.9774C25.4998 21.5792 25.3418 21.1973 25.0605 20.9157C24.7792 20.6341 24.3977 20.476 23.9998 20.476ZM17.9998 20.476C17.602 20.476 17.2205 20.6341 16.9392 20.9157C16.6579 21.1973 16.4998 21.5792 16.4998 21.9774C16.4998 22.3756 16.6579 22.7575 16.9392 23.039C17.2205 23.3206 17.602 23.4788 17.9998 23.4788C18.3977 23.4788 18.7792 23.3206 19.0605 23.039C19.3418 22.7575 19.4998 22.3756 19.4998 21.9774C19.4998 21.5792 19.3418 21.1973 19.0605 20.9157C18.7792 20.6341 18.3977 20.476 17.9998 20.476ZM29.9998 20.476C29.602 20.476 29.2205 20.6341 28.9392 20.9157C28.6579 21.1973 28.4998 21.5792 28.4998 21.9774C28.4998 22.3756 28.6579 22.7575 28.9392 23.039C29.2205 23.3206 29.602 23.4788 29.9998 23.4788C30.3977 23.4788 30.7792 23.3206 31.0605 23.039C31.3418 22.7575 31.4998 22.3756 31.4998 21.9774C31.4998 21.5792 31.3418 21.1973 31.0605 20.9157C30.7792 20.6341 30.3977 20.476 29.9998 20.476Z" stroke="#FFD90F" stroke-width="1.62031"/>
<path d="M38.8298 8.54474C31.4198 0.347033 18.7698 -0.28356 10.5798 7.13141C2.38984 14.5464 1.75984 27.2103 9.16784 35.408L4.29184 40.2866C4.15162 40.4266 4.05609 40.6051 4.01736 40.7995C3.97863 40.9939 3.99843 41.1954 4.07427 41.3785C4.1501 41.5617 4.27855 41.7181 4.44333 41.8281C4.60811 41.938 4.8018 41.9965 4.99984 41.9962H23.9998C28.2738 41.996 32.4163 40.626 35.8333 38.1154C35.9494 38.0301 36.0646 37.9435 36.179 37.8556L35.4995 35.8358C32.2822 38.5117 28.2174 39.9938 23.9998 39.9943H7.41384L11.2718 36.1327C11.4593 35.945 11.5646 35.6904 11.5646 35.425C11.5646 35.1596 11.4593 34.905 11.2718 34.7173C8.7551 32.198 7.04116 28.9884 6.34672 25.4941C5.65228 21.9999 6.00853 18.378 7.37043 15.0864C8.73232 11.7948 11.0387 8.98133 13.998 7.00165C16.9572 5.02198 20.4365 3.96503 23.9958 3.96443C28.7692 3.9639 33.3473 5.86139 36.7229 9.23947C40.0986 12.6176 41.9953 17.1995 41.9958 21.9774L43.9449 20.476C43.6262 16.1914 41.933 11.9768 38.8298 8.54474Z" stroke="#FFD90F" stroke-width="1.62031"/>
</svg>
