<svg width="38" height="43" viewBox="0 0 38 43" fill="none" xmlns="http://www.w3.org/2000/svg">
<path d="M0.425488 3.97828C1.63165 -1.28034 7.7965 -0.426159 16.0788 3.33763C25.9962 7.87552 40.0413 23.7048 37.1197 36.3041C36.8517 37.4519 36.4496 38.5731 35.8868 39.6675C29.1322 52.6672 2.08731 16.4708 0.77393 10.5449C0.130642 7.74205 0.0502357 5.57989 0.425488 3.97828Z" fill="#6EA2F9"/>
<path d="M0.425495 3.97984C1.63166 -1.27878 7.79651 -0.424595 16.0788 3.33919C25.9962 7.87708 40.0413 23.7063 37.1197 36.3057C32.7507 25.4414 22.4581 8.01056 0.425495 3.97984Z" fill="#3B78DC"/>
<path d="M22.7261 34.5405C20.3942 32.0046 16.9097 27.44 17.7139 26.5591C18.5448 25.6783 23.8787 28.6146 27.524 32.9389C29.9899 35.8752 32.1342 40.0127 31.3301 40.7067C30.4188 41.5075 25.7818 37.8505 22.7261 34.5405Z" fill="#EFF2F9"/>
</svg>
