<svg width="180" height="222" viewBox="0 0 180 222" fill="none" xmlns="http://www.w3.org/2000/svg">
<path d="M146.888 118.125C148.758 123.229 154.744 121.563 162.467 116.728C171.66 110.926 183.525 93.3058 179.009 81.1111C178.608 80.0098 178.047 78.9354 177.352 77.9147C168.988 65.8274 146.941 105.447 146.407 111.544C146.113 114.391 146.3 116.567 146.888 118.125Z" fill="#6EA2F9"/>
<path d="M146.888 118.125C148.758 123.228 154.744 121.563 162.467 116.728C171.66 110.926 183.525 93.3056 179.009 81.1108C176.07 92.4729 168.133 111.222 146.888 118.125Z" fill="#3B78DC"/>
<path d="M164.979 84.7102C163.001 87.5574 160.142 92.5535 161.077 93.3056C162.013 94.0846 166.903 90.4315 169.949 85.6772C172.007 82.4271 173.584 78.0219 172.702 77.431C171.66 76.7595 167.571 81.0035 164.979 84.7102Z" fill="#EFF2F9"/>
<path d="M58.9685 146.356C58.9685 168.463 74.4145 194.437 98.9197 194.437C114.125 194.437 126.632 185.089 133.927 172.572C138.416 164.89 140.955 156.026 140.955 147.404C140.955 124.76 116.343 125.835 100.764 125.835C83.6607 125.835 63.3778 124.519 59.5832 140.528C59.1823 142.274 58.9685 144.207 58.9685 146.356Z" fill="#6EA2F9"/>
<path d="M58.9686 146.356C58.9686 168.462 74.4146 194.436 98.9198 194.436C114.125 194.436 126.632 185.089 133.927 172.572C118.695 179.77 75.3232 194.705 59.5833 140.527C59.1824 142.273 58.9686 144.207 58.9686 146.356Z" fill="#3B78DC"/>
<path d="M132.484 138.648C135.664 143.859 133.419 151.299 127.941 154.227C122.169 157.316 114.286 154.55 112.148 148.425C110.117 142.597 114.045 136.069 119.684 134.243C124.2 132.766 129.838 134.324 132.484 138.648Z" fill="#EFF2F9"/>
<path d="M31.1228 130.052C39.7544 135.37 46.2214 136.74 47.1567 129.327C47.317 128.064 47.317 126.506 47.13 124.707C46.5153 118.609 24.0946 79.2048 15.8371 91.3995C13.6993 94.5422 13.0312 98.249 13.3519 102.09C14.3407 113.103 23.6403 125.432 31.1228 130.052Z" fill="#6EA2F9"/>
<path d="M31.1225 130.052C39.7541 135.37 46.2211 136.74 47.1564 129.327C41.4911 128.252 30.0803 123.149 13.3783 102.09C14.3403 113.103 23.64 125.432 31.1225 130.052Z" fill="#3B78DC"/>
<path d="M29.6802 105.447C33.4749 111.169 40.4764 120.543 41.572 119.845C42.534 119.227 38.8462 110.336 32.7534 102.896C29.3595 98.7591 24.87 94.6225 24.1752 95.1866C23.2934 95.885 28.4777 103.675 29.6802 105.447Z" fill="#EFF2F9"/>
<path d="M131.549 68.435C132.618 66.689 133.313 64.7819 133.633 62.848C134.408 58.3891 133.259 53.7691 130.346 50.2504C127.38 46.6779 122.944 44.7171 118.374 44.7439C117.065 44.7439 115.756 44.9051 114.473 45.2543C115.622 63.0091 131.549 68.435 131.549 68.435Z" fill="#6EA2F9"/>
<path d="M131.548 68.4347C132.617 66.6888 133.312 64.7817 133.633 62.8477C131.174 60.2422 128.635 57.4219 126.097 54.4403C123.291 51.1365 120.725 47.8863 118.374 44.7437C117.064 44.7437 115.755 44.9048 114.472 45.254C120.164 52.963 125.856 60.6989 131.548 68.4347Z" fill="#3B78DC"/>
<path d="M51.9938 106.146C58.7013 127.071 108.941 122.182 128.529 103.729C133.98 98.5985 137.054 92.4474 136.172 85.4905C132.11 53.4995 104.692 30.0502 81.1221 35.8252C72.5974 37.9204 63.3512 43.6685 56.8307 52.9892C48.4396 64.9153 44.4846 82.697 51.9938 106.146Z" fill="#6EA2F9"/>
<path d="M59.583 82.4558C60.5183 86.27 65.7293 87.4519 72.0895 87.3713C78.7702 87.2907 86.707 85.7865 92.1586 84.3897C99.935 82.4021 114.686 77.5134 119.042 71.7384C120.058 70.3954 120.512 68.9986 120.164 67.575C119.176 63.4385 116.343 60.1883 112.575 58.2544C108.807 56.3204 104.131 55.7026 99.4005 56.8576L73.1049 63.3042C67.6 64.6472 63.2441 68.1122 60.9726 72.4099C59.3158 75.4989 58.7546 78.9908 59.583 82.4558Z" fill="#123979"/>
<path d="M59.5831 82.4562C60.5184 86.2704 65.7294 87.4522 72.0895 87.3717C78.7703 87.2911 86.7071 85.7869 92.1586 84.3901C99.9351 82.4024 114.686 77.5138 119.042 71.7388C103.489 75.1232 76.6592 79.2866 60.9727 72.3834C59.3159 75.4993 58.7547 78.9911 59.5831 82.4562Z" fill="#123979"/>
<path d="M51.9935 106.146C58.7011 127.07 108.941 122.182 128.529 103.728C115.221 109.45 75.1358 124.68 62.8432 106.495C52.2608 90.8622 54.6124 65.9625 56.8037 52.9619C48.4394 64.9149 44.4843 82.6966 51.9935 106.146Z" fill="#3B78DC"/>
<path d="M113.35 50.1152C112.495 52.076 103.944 50.4912 97.8241 47.9395C91.9717 45.4951 85.478 40.9288 86.1995 39.0217C86.8409 37.3295 93.0406 38.001 97.0758 39.0217C106.162 41.3586 114.286 47.9663 113.35 50.1152Z" fill="#EFF2F9"/>
<path d="M132.644 80.4947C133.847 86.216 131.709 92.4745 130.212 92.4476C128.662 92.4208 127.593 85.4907 127.379 81.596C127.326 80.4678 126.898 73.6184 128.448 73.296C129.624 73.0006 131.869 76.7879 132.644 80.4947Z" fill="#EFF2F9"/>
<path d="M84.3822 62.3891C84.4357 62.9264 88.1769 63.2755 91.8113 62.7383C97.7171 61.8519 102.581 58.7092 102.34 58.0914C102.233 57.796 98.5722 58.6555 91.2501 60.4015C85.371 61.7982 84.3555 62.1205 84.3822 62.3891Z" fill="#296ABD"/>
<path d="M130.907 53.0693C131.041 52.9081 133.954 49.067 134.782 42.7816C135.557 37.0066 134.622 28.0083 125.937 17.8281L124.146 19.3592C130.64 26.9607 133.446 34.6697 132.457 42.325C131.736 48.0195 129.063 51.5651 129.037 51.6188L130.907 53.0693Z" fill="#094EBE"/>
<path d="M119.513 20.6238C117.241 18.6155 117.019 15.1362 119.017 12.8526C121.015 10.569 124.477 10.3459 126.749 12.3543C129.021 14.3626 129.243 17.8419 127.245 20.1255C125.247 22.4091 121.785 22.6322 119.513 20.6238Z" fill="#FFD90F"/>
<path d="M120.366 15.4657C120.012 13.873 121.011 12.2941 122.595 11.9389C124.18 11.5838 125.751 12.587 126.104 14.1797C126.457 15.7724 125.459 17.3514 123.875 17.7065C122.29 18.0616 120.719 17.0584 120.366 15.4657Z" fill="#094EBE"/>
<path d="M95.954 102.789C99.6418 101.983 102.154 99.5922 103.757 96.8256C106.617 91.8832 106.563 85.8127 105.334 85.947C103.436 86.1619 99.6151 90.1641 94.5911 91.2386C88.8189 92.4741 84.463 91.346 81.4433 91.8295C81.3097 91.8563 81.1761 91.8832 81.0425 91.9101C78.0227 92.5279 84.5966 105.233 95.954 102.789Z" fill="#123979"/>
<path d="M95.954 102.788C99.6418 101.982 102.154 99.5918 103.757 96.8252C98.5462 97.0132 88.1509 96.664 81.4434 91.8022C81.3097 91.8291 81.1761 91.856 81.0425 91.8828C78.0228 92.5275 84.5967 105.233 95.954 102.788Z" fill="#123979"/>
<path d="M116.797 68.0578C116.156 67.3594 115.327 66.8222 114.499 66.3924C113.644 65.9627 112.735 65.6672 111.8 65.4523C109.902 65.0494 107.925 65.13 106.027 65.6135C104.13 66.097 102.366 66.9834 100.897 68.1652C99.4268 69.3471 98.1708 70.7976 97.3424 72.4898C99.0527 71.684 100.603 70.8782 102.153 70.2066C103.703 69.5083 105.226 68.9711 106.776 68.5413C108.326 68.1384 109.929 67.8966 111.586 67.816C113.243 67.7892 114.926 67.8429 116.797 68.0578Z" fill="#4185F4"/>
<path d="M81.4694 75.7936C80.8547 75.0683 80.053 74.5043 79.2246 74.0476C78.3962 73.591 77.4876 73.2418 76.5523 73.0269C74.6817 72.5703 72.6774 72.5435 70.7801 72.9732C68.8828 73.3761 67.0923 74.2088 65.5691 75.337C64.0459 76.4651 62.7364 77.8619 61.8546 79.5541C63.5916 78.8288 65.1682 78.0499 66.7449 77.4321C68.3216 76.7874 69.8715 76.3039 71.4482 75.9548C73.0248 75.6056 74.6282 75.4175 76.2851 75.4175C77.9152 75.3907 79.6255 75.4981 81.4694 75.7936Z" fill="#4185F4"/>
<path d="M157.149 54.3044C157.684 54.3044 158.192 53.982 158.405 53.4448C158.486 53.2836 165.46 36.1197 177.619 23.9787C178.154 23.4415 178.154 22.582 177.619 22.0716C177.085 21.5613 176.23 21.5344 175.722 22.0716C163.162 34.6155 156.214 51.7257 155.92 52.451C155.653 53.1493 155.974 53.9283 156.668 54.2238C156.829 54.2775 156.989 54.3044 157.149 54.3044Z" fill="#BCD8FF"/>
<path d="M143.468 37.1679C144.162 37.1679 144.75 36.6307 144.804 35.9055C144.831 35.7174 146.327 17.2373 154.264 1.98051C154.611 1.309 154.344 0.50318 153.703 0.153992C153.035 -0.195196 152.233 0.0734101 151.885 0.718065C143.681 16.4852 142.185 34.9116 142.131 35.6906C142.078 36.4427 142.639 37.0873 143.361 37.1411C143.387 37.1679 143.441 37.1679 143.468 37.1679Z" fill="#BCD8FF"/>
<path d="M33.1536 69.1859C33.5544 69.1859 33.9553 68.9979 34.2225 68.6755C34.6768 68.0846 34.5699 67.2251 33.982 66.7684C33.3674 66.2849 18.8033 55.0035 1.70044 50.4909C0.978918 50.3029 0.257389 50.7327 0.0436038 51.4579C-0.143458 52.1831 0.284106 52.9084 1.00563 53.1232C17.574 57.5015 32.1916 68.8098 32.3252 68.9173C32.5657 69.1053 32.8596 69.1859 33.1536 69.1859Z" fill="#BCD8FF"/>
<path d="M36.441 47.4552C36.7083 47.4552 36.9755 47.3746 37.216 47.2135C37.8306 46.7837 37.991 45.951 37.5634 45.3332C37.1358 44.6886 26.6336 29.5123 11.6686 20.0037C11.0273 19.6008 10.1989 19.7888 9.79803 20.4335C9.39718 21.0781 9.58424 21.9108 10.2256 22.3137C24.7095 31.5 35.2385 46.73 35.3454 46.8912C35.5859 47.2672 36.0135 47.4552 36.441 47.4552Z" fill="#BCD8FF"/>
<path d="M106.337 18.9341L108.94 19.6528L105.896 30.7906L103.293 30.0719L106.337 18.9341Z" fill="#FFD90F"/>
<path d="M33.6639 115.359L34.8085 126.851L32.1227 127.121L30.9781 115.629L33.6639 115.359Z" fill="#FFD90F"/>
<path d="M69.3659 58.1441L76.1217 67.4873L73.9383 69.0823L67.1825 59.7392L69.3659 58.1441Z" fill="#FFD90F"/>
<path d="M149.356 95.6959L156.112 105.039L153.928 106.634L147.173 97.2909L149.356 95.6959Z" fill="#FFD90F"/>
<path d="M32.0141 11.2533L36.1996 20.6123L33.7376 21.7247L29.5521 12.3657L32.0141 11.2533Z" fill="#F73B3B"/>
<path d="M18.479 84.5873L22.6644 93.9463L20.2024 95.0587L16.017 85.6997L18.479 84.5873Z" fill="#F73B3B"/>
<path d="M143.826 44.4223L146.048 45.9639L140.247 54.4077L138.026 52.8661L143.826 44.4223Z" fill="#F73B3B"/>
<path d="M131.913 110.983L134.134 112.524L128.334 120.968L126.112 119.427L131.913 110.983Z" fill="#F73B3B"/>
<path d="M54.0205 24.5041L56.6259 25.2139L53.0815 38.3584L50.4762 37.6486L54.0205 24.5041Z" fill="#70C56F"/>
<path d="M52.2323 99.3347L54.8376 100.044L51.2933 113.189L48.688 112.479L52.2323 99.3347Z" fill="#70C56F"/>
<path d="M88.5538 14.3338L93.449 27.0317L90.9322 28.012L86.037 15.3141L88.5538 14.3338Z" fill="#70C56F"/>
<path d="M153.821 82.2303L158.716 94.9282L156.199 95.9085L151.304 83.2106L153.821 82.2303Z" fill="#70C56F"/>
<path d="M101.669 221.057C78.0845 221.057 58.9655 216.138 58.9655 210.071C58.9655 204.003 78.0845 199.084 101.669 199.084C125.253 199.084 144.372 204.003 144.372 210.071C144.372 216.138 125.253 221.057 101.669 221.057Z" fill="#BCD8FF"/>
</svg>
